<?xml version="1.0" encoding="utf-8"?>
<!-- Generator: Adobe Illustrator 24.0.1, SVG Export Plug-In . SVG Version: 6.00 Build 0)  -->
<svg version="1.0" id="Layer_1" xmlns="http://www.w3.org/2000/svg" xmlns:xlink="http://www.w3.org/1999/xlink" x="0px" y="0px"
	 viewBox="0 0 156 48" style="enable-background:new 0 0 156 48;" xml:space="preserve">
<style type="text/css">
	.st0{fill:#FFFFFF;}
</style>
<g>
	<path class="st0" d="M11.1,15.3c1.5-2.7,3.7-4.8,6.3-6.4c2.7-1.5,5.7-2.3,9-2.3c3.9,0,7.3,1,10.3,3c2.9,2,5,4.8,6.1,8.3h-8.1
		c-0.8-1.7-1.9-2.9-3.4-3.8c-1.4-0.8-3.1-1.3-5-1.3c-2,0-3.8,0.5-5.4,1.4c-1.6,1-2.8,2.3-3.7,4c-0.9,1.7-1.3,3.8-1.3,6.1
		c0,2.3,0.4,4.3,1.3,6.1c0.9,1.8,2.1,3.1,3.7,4c1.6,1,3.4,1.4,5.4,1.4c1.9,0,3.6-0.4,5-1.3c1.5-0.9,2.6-2.1,3.4-3.8h8.1
		c-1.2,3.6-3.2,6.3-6.1,8.3c-2.9,2-6.3,3-10.3,3c-3.3,0-6.3-0.8-9-2.3c-2.7-1.5-4.8-3.6-6.3-6.3c-1.6-2.7-2.3-5.8-2.3-9.2
		C8.8,21.1,9.5,18,11.1,15.3z"/>
	<path class="st0" d="M56,40c-2.7-1.5-4.9-3.7-6.5-6.4c-1.6-2.7-2.4-5.8-2.4-9.2c0-3.4,0.8-6.5,2.4-9.2c1.6-2.7,3.8-4.8,6.5-6.4
		c2.7-1.5,5.7-2.3,9-2.3c3.3,0,6.3,0.8,9,2.3c2.7,1.5,4.9,3.7,6.5,6.4c1.6,2.7,2.4,5.8,2.4,9.2c0,3.4-0.8,6.5-2.4,9.2
		c-1.6,2.7-3.7,4.8-6.5,6.4c-2.7,1.5-5.7,2.3-9,2.3C61.8,42.4,58.8,41.6,56,40z M70.6,34.7c1.6-0.9,2.8-2.3,3.8-4.1
		c0.9-1.8,1.3-3.8,1.3-6.1c0-2.3-0.4-4.4-1.3-6.1c-0.9-1.8-2.2-3.1-3.8-4c-1.6-0.9-3.5-1.4-5.6-1.4s-4,0.5-5.6,1.4
		c-1.6,0.9-2.9,2.3-3.8,4c-0.9,1.8-1.3,3.8-1.3,6.1c0,2.3,0.4,4.4,1.3,6.1c0.9,1.8,2.2,3.1,3.8,4.1c1.6,1,3.5,1.4,5.6,1.4
		S69,35.6,70.6,34.7z"/>
	<path class="st0" d="M106.1,42l-7.7-13.6h-3.3V42h-7V7.1h13.1c2.7,0,5,0.5,6.9,1.4c1.9,1,3.3,2.2,4.3,3.9c0.9,1.6,1.4,3.4,1.4,5.4
		c0,2.3-0.7,4.4-2,6.2c-1.3,1.9-3.3,3.1-5.9,3.8l8.3,14.1H106.1z M95.1,23.1h5.8c1.9,0,3.3-0.5,4.3-1.4c0.9-0.9,1.4-2.2,1.4-3.8
		c0-1.6-0.5-2.8-1.4-3.7c-0.9-0.9-2.3-1.3-4.3-1.3h-5.8V23.1z"/>
	<path class="st0" d="M139.8,42l-12.7-15.5V42h-7V7.1h7v15.6l12.7-15.6h8.4l-14.4,17.3L148.7,42H139.8z"/>
</g>
</svg>
