<svg width="576" height="512" viewBox="0 0 576 512" fill="none" xmlns="http://www.w3.org/2000/svg">
<path d="M288 144C277.401 144.166 266.881 145.849 256.76 149C261.442 157.233 263.934 166.529 264 176C264 183.354 262.551 190.636 259.737 197.43C256.923 204.225 252.798 210.398 247.598 215.598C242.398 220.798 236.224 224.923 229.43 227.737C222.636 230.552 215.354 232 208 232C198.529 231.934 189.233 229.442 181 224.76C174.504 247.288 175.261 271.289 183.164 293.362C191.067 315.436 205.714 334.464 225.032 347.75C244.349 361.037 267.358 367.909 290.798 367.392C314.238 366.876 336.921 358.998 355.635 344.873C374.348 330.749 388.144 311.094 395.066 288.694C401.989 266.293 401.688 242.283 394.207 220.063C386.725 197.843 372.442 178.54 353.381 164.889C334.319 151.237 311.446 143.929 288 144ZM572.52 241.4C518.29 135.59 410.93 64 288 64C165.07 64 57.6799 135.64 3.47994 241.41C1.19236 245.935 0.000488281 250.935 0.000488281 256.005C0.000488281 261.075 1.19236 266.075 3.47994 270.6C57.7099 376.41 165.07 448 288 448C410.93 448 518.32 376.36 572.52 270.59C574.808 266.065 575.999 261.065 575.999 255.995C575.999 250.925 574.808 245.925 572.52 241.4ZM288 400C189.35 400 98.9099 345 50.0699 256C98.9099 167 189.34 112 288 112C386.66 112 477.09 167 525.93 256C477.1 345 386.66 400 288 400Z" fill="#888EA8"/>
</svg>
