<?xml version="1.0" encoding="utf-8"?>
<!-- Generator: Adobe Illustrator 24.0.1, SVG Export Plug-In . SVG Version: 6.00 Build 0)  -->
<svg version="1.1" id="Layer_1" xmlns="http://www.w3.org/2000/svg" xmlns:xlink="http://www.w3.org/1999/xlink" x="0px" y="0px"
	 viewBox="0 0 160.2 48" style="enable-background:new 0 0 160.2 48;" xml:space="preserve">
<style type="text/css">
	.st0{fill:#009688;}
	.st1{fill:#FF5722;}
	.st2{fill:#FFFFFF;}
	.st3{fill:#017F70;}
	.st4{opacity:0.3;fill:#FFFFFF;enable-background:new    ;}
</style>
<path class="st0" d="M26.7,36.6l-9.2,9.6v-8.1C17.5,38.1,26.7,37.1,26.7,36.6z"/>
<path class="st0" d="M36.4,21c0,7.1-4.2,13.2-10.2,16.1c-2.3,1.1-4.9,1.7-7.6,1.7c-0.4,0-0.7,0-1.1,0C8.2,38.2,0.9,30.4,0.9,21
	c0-9.8,8-17.8,17.8-17.8c2.8,0,5.4,0.6,7.7,1.8l8.3,8.3C35.8,15.6,36.4,18.2,36.4,21z"/>
<g>
	<path class="st1" d="M43.1,13.2h3.8v6.9l4-6.9h4.3l-4.5,8.2l4.6,8H51l-4.1-7.1v7.1h-3.8C43.1,29.4,43.1,13.2,43.1,13.2z"/>
	<path class="st1" d="M57.7,13.2h9.8v3.2h-6v3.3h5.1v3.2h-5.1v3.3h6v3.2h-9.8V13.2z"/>
	<path class="st1" d="M74.2,23.3l-5-10.1h4.1l2.8,6.1l2.8-6.1H83l-5,10.1v6.1h-3.8V23.3z"/>
	<path class="st0" d="M92,29.5V13.2h5.2l3.3,9.4v-9.4h3.7v16.3H99L95.7,20v9.4H92V29.5z"/>
	<path class="st0" d="M107.5,27.2V15.4l2.2-2.2h7.3l2.2,2.2v11.8l-2.2,2.2h-7.3L107.5,27.2z M115.4,26.2v-9.8h-4.2v9.8H115.4z"/>
	<path class="st0" d="M132.1,13.2v3.2h-3.5v13.1h-3.8V16.4h-3.6v-3.2H132.1z"/>
	<path class="st0" d="M134.5,13.2h9.8v3.2h-6v3.3h5.1v3.2h-5.1v3.3h6v3.2h-9.8V13.2z"/>
	<path class="st0" d="M147.2,27.2v-2.6h3.8v1.6h4.2v-3.3h-5.7l-2.2-2.2v-5.3l2.2-2.2h7.3l2.2,2.2V18h-3.8v-1.6H151v3.3h5.7l2.2,2.2
		v5.3l-2.2,2.2h-7.3L147.2,27.2z"/>
</g>
<g>
	<g>
		<path class="st2" d="M25.1,21.5l-0.4,4.6l-0.1,0.7V27H11.2v-0.2l-0.1-0.7l-0.4-4.6c0-0.2,0-0.3,0-0.5c0-3.6,3.1-6.6,7.1-6.6
			C22.2,14.4,25.4,17.7,25.1,21.5z"/>
		<path class="st2" d="M24.6,27v0.2l-0.1,0.7l-0.2,2.6c-0.1,1.4-0.9,2.7-2,3.6c-1.2,0.9-2.7,1.4-4.4,1.4c-3.3,0-6.2-2.2-6.4-5
			l-0.2-2.6l-0.1-0.7V27C11.2,27,24.6,27,24.6,27z"/>
	</g>
	<path class="st3" d="M25.7,27c0,0.1,0,0.2,0,0.2c0,0.2-0.1,0.3-0.2,0.4c-0.2,0.2-0.4,0.3-0.6,0.3H11c-0.4,0-0.8-0.3-0.9-0.7
		c0-0.1,0-0.1,0-0.2s0-0.2,0-0.2c0-0.2,0.1-0.3,0.2-0.4c0.2-0.2,0.4-0.3,0.6-0.3h13.9c0.4,0,0.8,0.3,0.9,0.7
		C25.7,26.9,25.7,27,25.7,27z"/>
	<path class="st0" d="M22.3,29.6h-8.8c-0.2,0-0.4-0.2-0.4-0.4v-0.1c0-0.2,0.2-0.4,0.4-0.4h8.8c0.2,0,0.4,0.2,0.4,0.4v0.1
		C22.7,29.5,22.5,29.6,22.3,29.6z"/>
	<path class="st0" d="M22.3,31.3h-8.8c-0.2,0-0.4-0.2-0.4-0.4v-0.1c0-0.2,0.2-0.4,0.4-0.4h8.8c0.2,0,0.4,0.2,0.4,0.4v0.1
		C22.7,31.1,22.5,31.3,22.3,31.3z"/>
	<path class="st0" d="M22.3,32.9h-8.8c-0.2,0-0.4-0.2-0.4-0.4v-0.1c0-0.2,0.2-0.4,0.4-0.4h8.8c0.2,0,0.4,0.2,0.4,0.4v0.1
		C22.7,32.7,22.5,32.9,22.3,32.9z"/>
	<g>
		<ellipse class="st2" cx="8.4" cy="27" rx="1.1" ry="1.5"/>
		<path class="st2" d="M28.6,27c0,0.8-0.4,1.4-1,1.4h-0.1c-0.1,0-0.2,0-0.3-0.1c-0.4-0.2-0.7-0.6-0.8-1.2c0-0.1,0-0.1,0-0.2
			s0-0.1,0-0.2c0.1-0.7,0.5-1.2,1.1-1.2C28.1,25.6,28.6,26.2,28.6,27z"/>
	</g>
	<g>
		<path class="st2" d="M27.7,27c0,0.5,0,1-0.1,1.4c-0.6,4.6-4.2,8.3-8.7,8.8c-0.3,0-0.6,0.1-1,0.1c-0.3,0-0.7,0-1-0.1
			c-4.5-0.5-8-4.1-8.7-8.8c-0.1-0.5-0.1-1-0.1-1.4h0.4c0,0.5,0,0.9,0.1,1.4c0.6,4.4,4,7.9,8.2,8.4c0.3,0,0.6,0.1,1,0.1
			c0.3,0,0.7,0,1-0.1c4.2-0.5,7.6-3.9,8.2-8.4c0.1-0.4,0.1-0.8,0.1-1.2c0-0.1,0-0.1,0-0.2C27.1,27,27.7,27,27.7,27z"/>
	</g>
	<path class="st2" d="M18.9,36.8V38c0,0.2-0.1,0.3-0.3,0.3h-1.3c-0.2,0-0.3-0.1-0.3-0.3v-1.2c0-0.2,0.1-0.3,0.3-0.3h1.3
		C18.8,36.5,18.9,36.6,18.9,36.8z"/>
</g>
<g>
	<g>
		<path class="st2" d="M16.5,13.5c-0.1,0-0.1,0-0.2-0.1l-0.5-0.9c-0.1-0.1,0-0.2,0.1-0.3s0.2,0,0.3,0.1l0.5,0.9
			C16.7,13.3,16.7,13.5,16.5,13.5C16.6,13.5,16.5,13.5,16.5,13.5z"/>
		<path class="st4" d="M16.5,13.4C16.5,13.4,16.4,13.4,16.5,13.4l-0.6-0.9l0,0l0,0l0,0c0,0,0,0,0.1,0L16.5,13.4
			C16.6,13.3,16.6,13.3,16.5,13.4L16.5,13.4L16.5,13.4z"/>
	</g>
	<g>
		<path class="st2" d="M17.9,13.2c-0.1,0-0.2-0.1-0.2-0.2v-1c0-0.1,0.1-0.2,0.2-0.2s0.2,0.1,0.2,0.2v1C18.1,13.1,18,13.2,17.9,13.2z
			"/>
		<path class="st4" d="M17.9,13C17.8,13,17.8,13,17.9,13l-0.1-1c0,0,0-0.1,0.1-0.1s0.1,0,0.1,0.1L17.9,13L17.9,13z"/>
	</g>
	<g>
		<path class="st2" d="M19.3,13.5C19.2,13.5,19.2,13.5,19.3,13.5c-0.2-0.1-0.2-0.2-0.2-0.3l0.5-0.9c0.1-0.1,0.2-0.1,0.3-0.1
			c0.1,0.1,0.1,0.2,0.1,0.3l-0.5,0.9C19.4,13.5,19.3,13.5,19.3,13.5z"/>
		<path class="st4" d="M19.3,13.4C19.3,13.4,19.2,13.4,19.3,13.4C19.2,13.4,19.2,13.4,19.3,13.4C19.2,13.3,19.2,13.3,19.3,13.4
			l0.4-1c0,0,0,0,0.1,0l0,0l0,0l0,0L19.3,13.4L19.3,13.4z"/>
	</g>
</g>
<path class="st2" d="M28.9,15c-1.5,0.1-2.7-1.2-2.8-2.9l-0.4-6.6l9,9.2L28.9,15z"/>
<g>
	<g>
		<g>
			<path class="st1" d="M23.4,20.8c-0.5,0-0.4,0.4-1.8,0.4h3.5C23.8,21.3,23.8,20.8,23.4,20.8z"/>
			<path class="st1" d="M21.6,20.6c-0.6,0-0.5,0.7-2.2,0.7h4.3C22.1,21.3,22.2,20.6,21.6,20.6z"/>
			<path class="st1" d="M19.8,19.9c-0.7,0-0.4,1.4-1.8,1.4h3.5C20.2,21.3,20.5,19.9,19.8,19.9z"/>
			<path class="st1" d="M18,18.9c-0.9,0-0.5,2.3-2.4,2.3h4.8C18.5,21.3,18.9,18.9,18,18.9z"/>
			<path class="st1" d="M16.2,19.9c0.7,0,0.4,1.4,1.8,1.4h-3.5C15.8,21.3,15.6,19.9,16.2,19.9z"/>
			<path class="st1" d="M12.6,20.8c0.5,0,0.4,0.4,1.8,0.4h-3.5C12.3,21.3,12.2,20.8,12.6,20.8z"/>
			<path class="st1" d="M14.4,20.6c0.6,0,0.5,0.7,2.2,0.7h-4.3C13.9,21.3,13.8,20.6,14.4,20.6z"/>
		</g>
		<g>
			<path class="st1" d="M12.6,21.7c0.5,0,0.4-0.4,1.8-0.4h-3.5C12.3,21.3,12.2,21.7,12.6,21.7z"/>
			<path class="st1" d="M14.4,21.9c0.6,0,0.5-0.7,2.2-0.7h-4.3C13.9,21.3,13.8,21.9,14.4,21.9z"/>
			<path class="st1" d="M16.2,22.6c0.7,0,0.4-1.4,1.8-1.4h-3.5C15.8,21.3,15.6,22.6,16.2,22.6z"/>
			<path class="st1" d="M18,23.6c0.9,0,0.5-2.3,2.4-2.3h-4.8C17.5,21.3,17.1,23.6,18,23.6z"/>
			<path class="st1" d="M19.8,22.6c-0.7,0-0.4-1.4-1.8-1.4h3.5C20.2,21.3,20.5,22.6,19.8,22.6z"/>
			<path class="st1" d="M23.4,21.7c-0.5,0-0.4-0.4-1.8-0.4h3.5C23.8,21.3,23.8,21.7,23.4,21.7z"/>
			<path class="st1" d="M21.6,21.9c-0.6,0-0.5-0.7-2.2-0.7h4.3C22.1,21.3,22.2,21.9,21.6,21.9z"/>
		</g>
	</g>
</g>
</svg>
